# 3ds Max Wavefront OBJ Exporter v0.97b - (c)2007 guruware
# File Created: 10.08.2016 13:34:52

mtllib SM_Doordouble01.mtl

#
# object UnrealEdObject
#

v  -16.2416 242.4384 125.2156
v  -16.2416 -5.9275 125.2156
v  16.8290 -5.9275 125.2156
v  16.8290 242.4384 125.2156
v  18.0100 -5.9272 124.0346
v  18.0100 -5.9215 110.2138
v  18.0100 242.4379 110.2138
v  18.0100 242.4384 124.0346
v  -17.4228 -5.9270 124.0346
v  -17.4228 242.4384 124.0346
v  -17.4228 242.4384 115.2967
v  -17.4228 -5.9219 115.2965
v  -9.9130 -5.9211 109.0326
v  -9.9130 242.4377 109.0326
v  16.8290 242.4377 109.0326
v  16.8290 -5.9211 109.0326
v  16.8290 242.4384 -125.1764
v  16.8290 -5.9275 -125.1764
v  -16.2416 -5.9275 -125.1764
v  -16.2416 242.4384 -125.1764
v  18.0102 -5.9272 -123.9952
v  18.0102 242.4384 -123.9952
v  18.0102 242.4379 -110.1745
v  18.0102 -5.9215 -110.1745
v  -17.4226 -5.9270 -123.9952
v  -17.4226 -5.9219 -115.2573
v  -17.4226 242.4384 -115.2573
v  -17.4226 242.4384 -123.9952
v  -9.9128 -5.9211 -114.0763
v  -9.9128 242.4384 -114.0763
v  -16.2416 242.4384 -114.0763
v  -16.2416 -5.9211 -114.0763
v  23.6858 256.0267 125.2156
v  23.6860 256.0267 -125.1764
v  -23.0116 256.0267 -125.1764
v  -23.0117 256.0267 125.2156
v  -9.9130 242.4384 114.1155
v  -16.2416 242.4384 114.1155
v  -16.2416 -5.9211 114.1155
v  -9.9130 -5.9211 114.1155
v  16.8290 -5.9211 -108.9935
v  16.8290 242.4377 -108.9935
v  -9.9128 242.4377 -108.9935
v  -9.9128 -5.9211 -108.9935
v  -23.0104 242.4384 125.2156
v  24.7830 254.8457 -123.9952
v  24.7830 254.8457 124.0346
v  24.7830 244.8007 124.0346
v  24.7830 244.8007 -123.9952
v  23.6833 242.4384 -125.1764
v  -24.1956 254.8457 124.0346
v  -24.1956 254.8457 -123.9952
v  -24.1956 244.8007 -123.9952
v  -24.1956 244.8007 124.0346
v  23.6865 242.4384 125.2156
v  -23.0104 242.4384 -125.1764
v  -16.8998 46.1304 -114.9244
v  -18.2136 46.1304 -114.1660
v  -18.2136 46.1304 -112.6488
v  -16.8998 46.1304 -111.8903
v  -15.5860 46.1304 -112.6488
v  -15.5860 46.1304 -114.1660
v  -16.8998 185.9949 -114.9244
v  -18.2136 185.9948 -114.1660
v  -18.2136 185.9949 -112.6488
v  -16.8998 185.9948 -111.8903
v  -15.5860 185.9949 -112.6488
v  -15.5860 185.9948 -114.1660
v  -16.8998 46.1304 111.8072
v  -18.2136 46.1304 112.5658
v  -18.2136 46.1304 114.0828
v  -16.8998 46.1304 114.8414
v  -15.5860 46.1304 114.0828
v  -15.5860 46.1304 112.5658
v  -16.8998 185.9949 111.8072
v  -18.2136 185.9948 112.5658
v  -18.2136 185.9949 114.0828
v  -16.8998 185.9948 114.8414
v  -15.5860 185.9949 114.0828
v  -15.5860 185.9948 112.5658
v  -16.8998 36.2366 -111.8903
v  -15.5860 36.2366 -112.6488
v  -15.5860 36.2366 -114.1660
v  -16.8998 36.2366 -114.9244
v  -18.2136 36.2366 -114.1660
v  -18.2136 36.2366 -112.6488
v  -15.9166 35.0554 -113.9749
v  -15.9166 35.0554 -112.8397
v  -16.8998 35.0554 -112.2722
v  -17.8829 35.0554 -112.8397
v  -17.8829 35.0554 -113.9749
v  -16.8998 35.0554 -114.5426
v  -16.8998 176.1010 -111.8903
v  -15.5860 176.1010 -112.6488
v  -15.5860 176.1010 -114.1660
v  -16.8998 176.1010 -114.9244
v  -18.2136 176.1010 -114.1660
v  -18.2136 176.1010 -112.6488
v  -15.9166 174.9200 -113.9749
v  -15.9166 174.9200 -112.8397
v  -16.8998 174.9200 -112.2722
v  -17.8829 174.9200 -112.8397
v  -17.8829 174.9200 -113.9749
v  -16.8998 174.9200 -114.5426
v  -16.8998 36.2366 114.8414
v  -15.5860 36.2366 114.0828
v  -15.5860 36.2366 112.5658
v  -16.8998 36.2366 111.8072
v  -18.2136 36.2366 112.5658
v  -18.2136 36.2366 114.0828
v  -15.9166 35.0554 112.7567
v  -15.9166 35.0554 113.8919
v  -16.8998 35.0554 114.4594
v  -17.8829 35.0554 113.8919
v  -17.8829 35.0554 112.7567
v  -16.8998 35.0554 112.1890
v  -16.8998 176.1010 114.8414
v  -15.5860 176.1010 114.0828
v  -15.5860 176.1010 112.5658
v  -16.8998 176.1010 111.8072
v  -18.2136 176.1010 112.5658
v  -18.2136 176.1010 114.0828
v  -15.9166 174.9200 112.7567
v  -15.9166 174.9200 113.8919
v  -16.8998 174.9200 114.4594
v  -17.8829 174.9200 113.8919
v  -17.8829 174.9200 112.7567
v  -16.8998 174.9200 112.1890
# 128 vertices

vn 0.0000 0.0000 1.0000
vn 1.0000 0.0000 -0.0000
vn -1.0000 0.0000 -0.0000
vn 0.0000 0.0000 -1.0000
vn 0.0000 1.0000 -0.0000
vn 0.0000 -1.0000 0.0002
vn -0.0000 -1.0000 0.0000
vn 0.0002 -1.0000 -0.0000
vn 0.0001 -1.0000 -0.0000
vn 0.0001 -1.0000 0.0000
vn -0.0000 -1.0000 -0.0000
vn 0.0000 -1.0000 -0.0000
vn -0.7070 0.0000 -0.7072
vn -0.7071 0.0000 -0.7071
vn -0.7071 0.0000 0.7071
vn 0.7070 0.0000 0.7072
vn 0.7072 0.0000 -0.7071
vn 0.7071 0.0000 -0.7071
vn -0.7072 0.0000 -0.7070
vn -0.7070 0.0000 0.7072
vn -0.8938 -0.4484 -0.0000
vn 0.9070 -0.4210 -0.0000
vn 0.9066 -0.4220 -0.0000
vn 0.7327 0.6806 -0.0000
vn 0.7326 0.6806 0.0000
vn -0.7063 0.7080 -0.0000
vn -0.7062 0.7080 -0.0000
vn -0.7063 0.0000 0.7080
vn -0.7059 -0.0001 0.7083
vn 0.7329 0.0000 0.6804
vn 0.7326 0.0000 0.6806
vn 0.7327 0.0000 -0.6805
vn 0.7321 -0.0001 -0.6812
vn -0.7059 0.0000 -0.7083
vn -0.7062 -0.0001 -0.7080
vn 0.7071 0.0000 0.7071
vn 0.0000 -1.0000 -0.0002
vn -0.0001 -1.0000 -0.0000
vn -0.0002 1.0000 -0.0001
vn 0.0000 1.0000 0.0002
vn 0.0002 1.0000 -0.0001
vn 0.0000 -0.1486 0.9889
vn 0.8564 -0.1486 0.4944
vn 0.8660 0.0000 0.5000
vn -0.0000 0.0000 1.0000
vn 0.8564 -0.1486 -0.4945
vn 0.8660 0.0000 -0.5000
vn 0.0000 -0.1486 -0.9889
vn -0.0000 0.0000 -1.0000
vn -0.8564 -0.1486 -0.4945
vn -0.8660 0.0000 -0.5000
vn -0.8564 -0.1486 0.4944
vn -0.8660 0.0000 0.5000
vn 0.5969 -0.7245 -0.3446
vn 0.5969 -0.7245 0.3447
vn 0.0000 -0.7245 0.6892
vn -0.5969 -0.7245 0.3446
vn -0.5969 -0.7245 -0.3446
vn 0.0000 -0.7245 -0.6893
vn 0.8564 -0.1486 -0.4944
vn 0.0000 -0.1485 -0.9889
vn -0.8564 -0.1486 -0.4944
vn 0.0000 -0.7246 0.6892
# 63 vertex normals

vt 0.4880 0.6565 0.0000
vt 0.0018 0.6565 0.0000
vt 0.0018 0.5918 0.0000
vt 0.4880 0.5918 0.0000
vt 0.0018 0.7851 0.0000
vt 0.0018 0.7581 0.0000
vt 0.4880 0.7581 0.0000
vt 0.4880 0.7851 0.0000
vt 0.0018 0.6598 0.0000
vt 0.4880 0.6598 0.0000
vt 0.4880 0.6769 0.0000
vt 0.0018 0.6769 0.0000
vt 0.0018 0.7025 0.0000
vt 0.4880 0.7025 0.0000
vt 0.4880 0.7548 0.0000
vt 0.0018 0.7548 0.0000
vt 0.4878 0.9844 0.0000
vt 0.0020 0.9844 0.0000
vt 0.0020 0.9197 0.0000
vt 0.4878 0.9197 0.0000
vt 0.0020 0.7912 0.0000
vt 0.4877 0.7911 0.0000
vt 0.4877 0.8182 0.0000
vt 0.0020 0.8182 0.0000
vt 0.0020 0.9164 0.0000
vt 0.0020 0.8993 0.0000
vt 0.4878 0.8993 0.0000
vt 0.4878 0.9164 0.0000
vt 0.0020 0.8837 0.0000
vt 0.4877 0.8837 0.0000
vt 0.4878 0.8961 0.0000
vt 0.0020 0.8961 0.0000
vt 0.5177 0.9049 0.0000
vt 0.9974 0.9049 0.0000
vt 0.9972 0.9943 0.0000
vt 0.5178 0.9943 0.0000
vt 0.5488 0.8142 0.0000
vt 0.5390 0.8142 0.0000
vt 0.5390 0.8020 0.0000
vt 0.0018 0.6801 0.0000
vt 0.4880 0.6801 0.0000
vt 0.4880 0.6925 0.0000
vt 0.0018 0.6925 0.0000
vt 0.0020 0.8215 0.0000
vt 0.4877 0.8214 0.0000
vt 0.4877 0.8738 0.0000
vt 0.0020 0.8738 0.0000
vt 0.5146 0.6698 0.0000
vt 0.4880 0.6698 0.0000
vt 0.9948 0.9022 0.0000
vt 0.5202 0.9023 0.0000
vt 0.5202 0.8832 0.0000
vt 0.9948 0.8832 0.0000
vt 0.5144 0.9978 0.0000
vt 0.4878 0.9978 0.0000
vt 0.5200 0.7648 0.0000
vt 0.9950 0.7648 0.0000
vt 0.9950 0.7840 0.0000
vt 0.5200 0.7840 0.0000
vt 0.4880 0.5783 0.0000
vt 0.5146 0.5783 0.0000
vt 0.4878 0.9064 0.0000
vt 0.5144 0.9064 0.0000
vt 0.5177 0.8785 0.0000
vt 0.5199 0.8676 0.0000
vt 0.5465 0.8676 0.0000
vt 0.5488 0.8654 0.0000
vt 0.9663 0.8654 0.0000
vt 0.9686 0.8676 0.0000
vt 0.9974 0.8785 0.0000
vt 0.9951 0.8676 0.0000
vt 0.5368 0.7998 0.0000
vt 0.5200 0.7998 0.0000
vt 0.5178 0.7891 0.0000
vt 0.9972 0.7891 0.0000
vt 0.9783 0.7998 0.0000
vt 0.9760 0.8020 0.0000
vt 0.9950 0.7998 0.0000
vt 0.9974 0.8654 0.0000
vt 0.0020 0.7879 0.0000
vt 0.4877 0.7879 0.0000
vt 0.9972 0.8021 0.0000
vt 0.5178 0.8021 0.0000
vt 0.9950 0.9975 0.0000
vt 0.5200 0.9975 0.0000
vt 0.5123 0.6730 0.0000
vt 0.4926 0.6730 0.0000
vt 0.4924 0.9032 0.0000
vt 0.5120 0.9032 0.0000
vt 0.5177 0.8654 0.0000
vt 0.0018 0.5885 0.0000
vt 0.4880 0.5885 0.0000
vt 0.9760 0.8142 0.0000
vt 0.9663 0.8142 0.0000
vt 0.4038 0.5588 0.0000
vt 0.3998 0.5564 0.0000
vt 0.3998 0.5520 0.0000
vt 0.4038 0.5496 0.0000
vt 0.4078 0.5519 0.0000
vt 0.4078 0.5565 0.0000
vt 0.3610 0.5446 0.0000
vt 0.3570 0.5422 0.0000
vt 0.3570 0.5378 0.0000
vt 0.3610 0.5354 0.0000
vt 0.3650 0.5377 0.0000
vt 0.3650 0.5423 0.0000
vt 0.4058 0.5354 0.0000
vt 0.4098 0.5378 0.0000
vt 0.4098 0.5422 0.0000
vt 0.4058 0.5446 0.0000
vt 0.4019 0.5423 0.0000
vt 0.4019 0.5377 0.0000
vt 0.4480 0.5489 0.0000
vt 0.4519 0.5512 0.0000
vt 0.4519 0.5557 0.0000
vt 0.4480 0.5581 0.0000
vt 0.4440 0.5558 0.0000
vt 0.4440 0.5512 0.0000
vt 0.3701 0.5478 0.0000
vt 0.3701 0.5435 0.0000
vt 0.3998 0.5435 0.0000
vt 0.3998 0.5478 0.0000
vt 0.3701 0.5394 0.0000
vt 0.3998 0.5394 0.0000
vt 0.3701 0.5648 0.0000
vt 0.3701 0.5606 0.0000
vt 0.3998 0.5606 0.0000
vt 0.3998 0.5648 0.0000
vt 0.3701 0.5563 0.0000
vt 0.3701 0.5520 0.0000
vt 0.3605 0.5559 0.0000
vt 0.3605 0.5525 0.0000
vt 0.3635 0.5507 0.0000
vt 0.3664 0.5522 0.0000
vt 0.3664 0.5561 0.0000
vt 0.3635 0.5576 0.0000
vt 0.3265 0.5334 0.0000
vt 0.3265 0.5291 0.0000
vt 0.3570 0.5291 0.0000
vt 0.3570 0.5334 0.0000
vt 0.3265 0.5552 0.0000
vt 0.3265 0.5509 0.0000
vt 0.3570 0.5509 0.0000
vt 0.3570 0.5552 0.0000
vt 0.3265 0.5466 0.0000
vt 0.3570 0.5466 0.0000
vt 0.3265 0.5422 0.0000
vt 0.3265 0.5378 0.0000
vt 0.3168 0.5417 0.0000
vt 0.3168 0.5383 0.0000
vt 0.3198 0.5366 0.0000
vt 0.3228 0.5380 0.0000
vt 0.3228 0.5420 0.0000
vt 0.3198 0.5434 0.0000
vt 0.3664 0.5478 0.0000
vt 0.3664 0.5435 0.0000
vt 0.3664 0.5606 0.0000
vt 0.3664 0.5648 0.0000
vt 0.3664 0.5394 0.0000
vt 0.3228 0.5334 0.0000
vt 0.3228 0.5291 0.0000
vt 0.3228 0.5466 0.0000
vt 0.3228 0.5509 0.0000
vt 0.3228 0.5552 0.0000
vt 0.4395 0.5464 0.0000
vt 0.4395 0.5506 0.0000
vt 0.4098 0.5506 0.0000
vt 0.4098 0.5464 0.0000
vt 0.4395 0.5548 0.0000
vt 0.4098 0.5548 0.0000
vt 0.4395 0.5294 0.0000
vt 0.4395 0.5336 0.0000
vt 0.4098 0.5336 0.0000
vt 0.4098 0.5294 0.0000
vt 0.4395 0.5378 0.0000
vt 0.4395 0.5421 0.0000
vt 0.4492 0.5383 0.0000
vt 0.4492 0.5417 0.0000
vt 0.4462 0.5434 0.0000
vt 0.4432 0.5419 0.0000
vt 0.4432 0.5380 0.0000
vt 0.4462 0.5365 0.0000
vt 0.4824 0.5600 0.0000
vt 0.4824 0.5643 0.0000
vt 0.4519 0.5643 0.0000
vt 0.4519 0.5600 0.0000
vt 0.4824 0.5383 0.0000
vt 0.4824 0.5426 0.0000
vt 0.4519 0.5426 0.0000
vt 0.4519 0.5383 0.0000
vt 0.4824 0.5469 0.0000
vt 0.4519 0.5469 0.0000
vt 0.4824 0.5513 0.0000
vt 0.4824 0.5557 0.0000
vt 0.4921 0.5518 0.0000
vt 0.4921 0.5552 0.0000
vt 0.4891 0.5569 0.0000
vt 0.4862 0.5554 0.0000
vt 0.4862 0.5515 0.0000
vt 0.4891 0.5500 0.0000
vt 0.4432 0.5464 0.0000
vt 0.4432 0.5506 0.0000
vt 0.4432 0.5336 0.0000
vt 0.4432 0.5294 0.0000
vt 0.4432 0.5548 0.0000
vt 0.4862 0.5600 0.0000
vt 0.4862 0.5643 0.0000
vt 0.4862 0.5469 0.0000
vt 0.4862 0.5426 0.0000
vt 0.4862 0.5383 0.0000
# 210 texture coords

g UnrealEdObject
usemtl Material__2
s off
f 1/1/1 2/2/1 3/3/1 
f 3/3/1 4/4/1 1/1/1 
f 5/5/2 6/6/2 7/7/2 
f 7/7/2 8/8/2 5/5/2 
f 9/9/3 10/10/3 11/11/3 
f 11/11/3 12/12/3 9/9/3 
f 13/13/4 14/14/4 15/15/4 
f 15/15/4 16/16/4 13/13/4 
f 17/17/4 18/18/4 19/19/4 
f 19/19/4 20/20/4 17/17/4 
f 21/21/2 22/22/2 23/23/2 
f 23/23/2 24/24/2 21/21/2 
f 25/25/3 26/26/3 27/27/3 
f 27/27/3 28/28/3 25/25/3 
f 29/29/1 30/30/1 31/31/1 
f 31/31/1 32/32/1 29/29/1 
f 33/33/5 34/34/5 35/35/5 
f 35/35/5 36/36/5 33/33/5 
f 14/37/6 37/38/6 38/39/6 
f 39/40/4 38/41/4 37/42/4 
f 37/42/4 40/43/4 39/40/4 
f 41/44/1 42/45/1 43/46/1 
f 43/46/1 44/47/1 41/44/1 
f 40/43/3 37/42/3 14/14/3 
f 14/14/3 13/13/3 40/43/3 
f 30/30/3 29/29/3 44/47/3 
f 44/47/3 43/46/3 30/30/3 
f 1/1/1 36/48/1 45/49/1 
f 46/50/2 47/51/2 48/52/2 
f 48/52/2 49/53/2 46/50/2 
f 17/17/4 34/54/4 50/55/4 
f 51/56/3 52/57/3 53/58/3 
f 53/58/3 54/59/3 51/56/3 
f 4/4/1 55/60/1 33/61/1 
f 56/62/4 35/63/4 20/20/4 
f 55/64/7 8/65/7 7/66/7 
f 7/66/8 15/67/8 42/68/8 
f 23/69/9 50/70/9 55/64/9 
f 42/68/8 23/69/8 55/64/8 
f 7/66/10 42/68/10 55/64/10 
f 50/70/11 23/69/11 22/71/11 
f 11/72/12 10/73/12 45/74/12 
f 11/72/12 45/74/12 56/75/12 
f 27/76/12 31/77/12 38/39/12 
f 56/75/12 27/76/12 38/39/12 
f 11/72/12 56/75/12 38/39/12 
f 56/75/12 28/78/12 27/76/12 
f 39/40/13 12/12/13 11/11/13 
f 11/11/14 38/41/14 39/40/14 
f 31/31/15 27/27/15 26/26/15 
f 26/26/15 32/32/15 31/31/15 
f 23/23/16 42/45/16 41/44/16 
f 41/44/16 24/24/16 23/23/16 
f 6/6/17 16/16/17 15/15/17 
f 15/15/17 7/7/17 6/6/17 
f 17/79/12 50/70/12 22/71/12 
f 21/21/18 18/80/18 17/81/18 
f 17/81/18 22/22/18 21/21/18 
f 28/78/12 56/75/12 20/82/12 
f 19/19/19 25/25/19 28/28/19 
f 28/28/19 20/20/19 19/19/19 
f 1/83/12 45/74/12 10/73/12 
f 9/9/20 2/2/20 1/1/20 
f 1/1/20 10/10/20 9/9/20 
f 56/75/21 45/74/21 54/59/21 
f 54/59/21 53/58/21 56/75/21 
f 48/52/22 55/64/22 50/70/22 
f 50/70/23 49/53/23 48/52/23 
f 47/51/24 46/50/24 34/34/24 
f 34/34/25 33/33/25 47/51/25 
f 52/84/26 51/85/26 36/36/26 
f 36/36/27 35/35/27 52/84/27 
f 36/48/28 51/86/28 54/87/28 
f 54/87/29 45/49/29 36/48/29 
f 55/64/30 48/52/30 47/51/30 
f 47/51/31 33/33/31 55/64/31 
f 34/34/32 46/50/32 49/53/32 
f 49/53/33 50/70/33 34/34/33 
f 56/62/34 53/88/34 52/89/34 
f 52/89/35 35/63/35 56/62/35 
f 8/65/12 55/64/12 4/90/12 
f 3/3/36 5/91/36 8/92/36 
f 8/92/36 4/4/36 3/3/36 
f 31/77/37 30/93/37 43/94/37 
f 31/77/38 43/94/38 14/37/38 
f 14/37/38 38/39/38 31/77/38 
f 42/68/12 15/67/12 14/37/12 
f 14/37/12 43/94/12 42/68/12 
f 1/1/1 4/4/1 33/61/1 
f 33/61/1 36/48/1 1/1/1 
f 17/17/4 20/20/4 35/63/4 
f 35/63/4 34/54/4 17/17/4 
f 57/95/5 58/96/5 59/97/5 
f 59/97/5 60/98/5 61/99/5 
f 57/95/5 59/97/5 61/99/5 
f 57/95/5 61/99/5 62/100/5 
f 63/101/39 64/102/39 65/103/39 
f 65/103/40 66/104/40 67/105/40 
f 63/101/5 65/103/5 67/105/5 
f 63/101/41 67/105/41 68/106/41 
f 69/107/5 70/108/5 71/109/5 
f 71/109/5 72/110/5 73/111/5 
f 69/107/5 71/109/5 73/111/5 
f 69/107/5 73/111/5 74/112/5 
f 75/113/39 76/114/39 77/115/39 
f 77/115/40 78/116/40 79/117/40 
f 75/113/5 77/115/5 79/117/5 
f 75/113/41 79/117/41 80/118/41 
s 1
f 81/119/42 82/120/43 61/121/44 
f 61/121/44 60/122/45 81/119/42 
f 82/120/43 83/123/46 62/124/47 
f 62/124/47 61/121/44 82/120/43 
f 83/125/46 84/126/48 57/127/49 
f 57/127/49 62/128/47 83/125/46 
f 84/126/48 85/129/50 58/96/51 
f 58/96/51 57/127/49 84/126/48 
f 85/129/50 86/130/52 59/97/53 
f 59/97/53 58/96/51 85/129/50 
f 86/130/52 81/119/42 60/122/45 
f 60/122/45 59/97/53 86/130/52 
f 87/131/54 88/132/55 89/133/56 
f 89/133/56 90/134/57 91/135/58 
f 87/131/54 89/133/56 91/135/58 
f 87/131/54 91/135/58 92/136/59 
f 93/137/42 94/138/43 67/139/44 
f 67/139/44 66/140/45 93/137/42 
f 94/141/43 95/142/46 68/143/47 
f 68/143/47 67/144/44 94/141/43 
f 95/142/46 96/145/48 63/146/49 
f 63/146/49 68/143/47 95/142/46 
f 96/145/48 97/147/50 64/102/51 
f 64/102/51 63/146/49 96/145/48 
f 97/147/50 98/148/52 65/103/53 
f 65/103/53 64/102/51 97/147/50 
f 98/148/52 93/137/42 66/140/45 
f 66/140/45 65/103/53 98/148/52 
f 99/149/54 100/150/55 101/151/56 
f 101/151/56 102/152/57 103/153/58 
f 99/149/54 101/151/56 103/153/58 
f 99/149/54 103/153/58 104/154/59 
f 89/155/56 88/156/55 82/120/43 
f 82/120/43 81/119/42 89/155/56 
f 90/134/57 89/155/56 81/119/42 
f 81/119/42 86/130/52 90/134/57 
f 91/135/58 90/134/57 86/130/52 
f 86/130/52 85/129/50 91/135/58 
f 92/157/59 91/135/58 85/129/50 
f 85/129/50 84/126/48 92/157/59 
f 87/158/54 92/157/59 84/126/48 
f 84/126/48 83/125/46 87/158/54 
f 88/156/55 87/159/54 83/123/46 
f 83/123/46 82/120/43 88/156/55 
f 101/160/56 100/161/55 94/138/43 
f 94/138/43 93/137/42 101/160/56 
f 102/152/57 101/160/56 93/137/42 
f 93/137/42 98/148/52 102/152/57 
f 103/153/58 102/152/57 98/148/52 
f 98/148/52 97/147/50 103/153/58 
f 104/162/59 103/153/58 97/147/50 
f 97/147/50 96/145/48 104/162/59 
f 99/163/54 104/162/59 96/145/48 
f 96/145/48 95/142/46 99/163/54 
f 100/164/55 99/163/54 95/142/46 
f 95/142/46 94/141/43 100/164/55 
f 105/165/42 106/166/43 73/167/44 
f 73/167/44 72/168/45 105/165/42 
f 106/166/43 107/169/60 74/170/47 
f 74/170/47 73/167/44 106/166/43 
f 107/171/60 108/172/61 69/173/49 
f 69/173/49 74/174/47 107/171/60 
f 108/172/61 109/175/62 70/108/51 
f 70/108/51 69/173/49 108/172/61 
f 109/175/62 110/176/52 71/109/53 
f 71/109/53 70/108/51 109/175/62 
f 110/176/52 105/165/42 72/168/45 
f 72/168/45 71/109/53 110/176/52 
f 111/177/54 112/178/55 113/179/56 
f 113/179/56 114/180/57 115/181/58 
f 111/177/54 113/179/56 115/181/58 
f 111/177/54 115/181/58 116/182/59 
f 117/183/42 118/184/43 79/185/44 
f 79/185/44 78/186/45 117/183/42 
f 118/187/43 119/188/60 80/189/47 
f 80/189/47 79/190/44 118/187/43 
f 119/188/60 120/191/48 75/192/49 
f 75/192/49 80/189/47 119/188/60 
f 120/191/48 121/193/62 76/114/51 
f 76/114/51 75/192/49 120/191/48 
f 121/193/62 122/194/52 77/115/53 
f 77/115/53 76/114/51 121/193/62 
f 122/194/52 117/183/42 78/186/45 
f 78/186/45 77/115/53 122/194/52 
f 123/195/54 124/196/55 125/197/63 
f 125/197/63 126/198/57 127/199/58 
f 123/195/54 125/197/63 127/199/58 
f 123/195/54 127/199/58 128/200/59 
f 113/201/56 112/202/55 106/166/43 
f 106/166/43 105/165/42 113/201/56 
f 114/180/57 113/201/56 105/165/42 
f 105/165/42 110/176/52 114/180/57 
f 115/181/58 114/180/57 110/176/52 
f 110/176/52 109/175/62 115/181/58 
f 116/203/59 115/181/58 109/175/62 
f 109/175/62 108/172/61 116/203/59 
f 111/204/54 116/203/59 108/172/61 
f 108/172/61 107/171/60 111/204/54 
f 112/202/55 111/205/54 107/169/60 
f 107/169/60 106/166/43 112/202/55 
f 125/206/63 124/207/55 118/184/43 
f 118/184/43 117/183/42 125/206/63 
f 126/198/57 125/206/63 117/183/42 
f 117/183/42 122/194/52 126/198/57 
f 127/199/58 126/198/57 122/194/52 
f 122/194/52 121/193/62 127/199/58 
f 128/208/59 127/199/58 121/193/62 
f 121/193/62 120/191/48 128/208/59 
f 123/209/54 128/208/59 120/191/48 
f 120/191/48 119/188/60 123/209/54 
f 124/210/55 123/209/54 119/188/60 
f 119/188/60 118/187/43 124/210/55 
# 220 faces

